<svg width="52" height="52" viewBox="0 0 52 52" fill="none" xmlns="http://www.w3.org/2000/svg">
<rect width="52" height="52" rx="26" fill="url(#paint0_linear_412_3265)"/>
<path d="M13.9993 29C13.7154 29.001 13.4371 28.9214 13.1967 28.7705C12.9563 28.6196 12.7636 28.4035 12.6411 28.1475C12.5186 27.8914 12.4712 27.6059 12.5045 27.324C12.5378 27.0421 12.6504 26.7754 12.8293 26.555L27.6793 11.255C27.7906 11.1264 27.9424 11.0395 28.1097 11.0086C28.277 10.9777 28.4498 11.0045 28.5999 11.0848C28.7499 11.165 28.8681 11.2938 28.9353 11.4502C29.0024 11.6065 29.0144 11.781 28.9693 11.945L26.0893 20.975C26.0043 21.2023 25.9758 21.4468 26.0061 21.6875C26.0365 21.9282 26.1247 22.158 26.2634 22.3571C26.402 22.5563 26.5869 22.7188 26.8022 22.8307C27.0174 22.9427 27.2566 23.0008 27.4993 23H37.9993C38.2831 22.999 38.5614 23.0786 38.8018 23.2295C39.0422 23.3804 39.2349 23.5965 39.3574 23.8525C39.48 24.1086 39.5273 24.3941 39.494 24.676C39.4607 24.9579 39.3481 25.2246 39.1693 25.445L24.3193 40.745C24.2079 40.8736 24.0561 40.9605 23.8888 40.9914C23.7215 41.0223 23.5487 40.9955 23.3987 40.9152C23.2487 40.835 23.1304 40.7062 23.0633 40.5498C22.9961 40.3935 22.9841 40.219 23.0293 40.055L25.9093 31.025C25.9942 30.7977 26.0227 30.5532 25.9924 30.3125C25.962 30.0718 25.8738 29.842 25.7351 29.6429C25.5965 29.4437 25.4116 29.2812 25.1963 29.1693C24.9811 29.0573 24.7419 28.9992 24.4993 29H13.9993Z" fill="#F7C848"/>
<defs>
<linearGradient id="paint0_linear_412_3265" x1="28.1468" y1="37.0303" x2="-7.66445" y2="18.5005" gradientUnits="userSpaceOnUse">
<stop stop-color="#161C89"/>
<stop offset="1" stop-color="#003DAF"/>
</linearGradient>
</defs>
</svg>
