<svg width="53" height="52" viewBox="0 0 53 52" fill="none" xmlns="http://www.w3.org/2000/svg">
<rect width="53" height="52" rx="26" fill="url(#paint0_linear_412_3259)"/>
<path d="M38.8327 27.5007C38.8327 35.0007 33.4368 38.7507 27.0235 40.9257C26.6877 41.0364 26.3229 41.0311 25.9906 40.9107C19.5618 38.7507 14.166 35.0007 14.166 27.5007V17.0007C14.166 16.6028 14.3284 16.2213 14.6176 15.94C14.9067 15.6587 15.2988 15.5007 15.7077 15.5007C18.791 15.5007 22.6452 13.7007 25.3277 11.4207C25.6543 11.1492 26.0698 11 26.4993 11C26.9289 11 27.3444 11.1492 27.671 11.4207C30.3689 13.7157 34.2077 15.5007 37.291 15.5007C37.6999 15.5007 38.092 15.6587 38.3811 15.94C38.6703 16.2213 38.8327 16.6028 38.8327 17.0007V27.5007Z" fill="#F7C848"/>
<defs>
<linearGradient id="paint0_linear_412_3259" x1="28.6881" y1="37.0303" x2="-7.51495" y2="17.9375" gradientUnits="userSpaceOnUse">
<stop stop-color="#161C89"/>
<stop offset="1" stop-color="#003DAF"/>
</linearGradient>
</defs>
</svg>
