<svg width="52" height="52" viewBox="0 0 52 52" fill="none" xmlns="http://www.w3.org/2000/svg">
<rect width="52" height="52" rx="26" fill="url(#paint0_linear_412_3271)"/>
<path d="M25.22 13.2485C25.2834 13.0937 25.3915 12.9613 25.5304 12.8681C25.6693 12.775 25.8327 12.7252 26 12.7252C26.1673 12.7252 26.3307 12.775 26.4696 12.8681C26.6085 12.9613 26.7166 13.0937 26.78 13.2485L29.9675 20.915C30.0272 21.0584 30.1253 21.1826 30.251 21.2739C30.3767 21.3652 30.5251 21.4201 30.68 21.4325L38.957 22.0955C39.7055 22.1555 40.0085 23.09 39.4385 23.5775L33.1325 28.9805C33.0147 29.0812 32.9269 29.2125 32.8787 29.3599C32.8306 29.5073 32.8239 29.6651 32.8595 29.816L34.787 37.8935C34.8257 38.0555 34.8156 38.2254 34.7578 38.3817C34.7001 38.538 34.5973 38.6737 34.4625 38.7716C34.3276 38.8695 34.1668 38.9252 34.0003 38.9318C33.8338 38.9384 33.6691 38.8954 33.527 38.8085L26.4395 34.481C26.3072 34.4001 26.1551 34.3573 26 34.3573C25.8449 34.3573 25.6928 34.4001 25.5605 34.481L18.473 38.81C18.3309 38.8969 18.1662 38.9399 17.9997 38.9333C17.8332 38.9267 17.6724 38.871 17.5376 38.7731C17.4027 38.6752 17.2999 38.5395 17.2422 38.3832C17.1844 38.2269 17.1743 38.057 17.213 37.895L19.1405 29.816C19.1762 29.6651 19.1697 29.5072 19.1215 29.3598C19.0733 29.2124 18.9855 29.0811 18.8675 28.9805L12.5615 23.5775C12.4345 23.4692 12.3425 23.3257 12.2971 23.1651C12.2518 23.0046 12.2551 22.8341 12.3066 22.6754C12.3582 22.5167 12.4557 22.3769 12.5868 22.2737C12.7179 22.1704 12.8766 22.1084 13.043 22.0955L21.32 21.4325C21.4749 21.4201 21.6233 21.3652 21.749 21.2739C21.8748 21.1826 21.9728 21.0584 22.0325 20.915L25.22 13.2485Z" fill="#F7C848"/>
<defs>
<linearGradient id="paint0_linear_412_3271" x1="28.1468" y1="37.0303" x2="-7.66445" y2="18.5005" gradientUnits="userSpaceOnUse">
<stop stop-color="#161C89"/>
<stop offset="1" stop-color="#003DAF"/>
</linearGradient>
</defs>
</svg>
